<svg xmlns="http://www.w3.org/2000/svg" viewBox="0 0 1920 1200" role="img" aria-labelledby="title desc">
<title id="title">BLK.8 CAFÉ generated hero exterior</title>
<desc id="desc">A warm generated vector café exterior with coffee bar, glowing windows, and BLK.8 CAFÉ sign.</desc>
<defs>
<linearGradient id="sky" x1="0" y1="0" x2="1" y2="1"><stop stop-color="#211712"/><stop offset=".55" stop-color="#4c2d1b"/><stop offset="1" stop-color="#111111"/></linearGradient>
<linearGradient id="warm" x1="0" x2="0" y1="0" y2="1"><stop stop-color="#fff2cf"/><stop offset="1" stop-color="#d8b894"/></linearGradient>
<filter id="glow" x="-30%" y="-30%" width="160%" height="160%"><feGaussianBlur stdDeviation="18" result="b"/><feMerge><feMergeNode in="b"/><feMergeNode in="SourceGraphic"/></feMerge></filter>
<filter id="shadow" x="-20%" y="-20%" width="140%" height="140%"><feDropShadow dx="0" dy="30" stdDeviation="28" flood-color="#000" flood-opacity=".35"/></filter>
</defs>
<rect width="1920" height="1200" fill="url(#sky)"/>
<circle cx="1580" cy="170" r="260" fill="#7e9b60" opacity=".12"/>
<circle cx="320" cy="180" r="220" fill="#f1d6b2" opacity=".11"/>
<path d="M0 835c270-92 530-100 780-35s490 72 740 2c170-48 295-50 400-24v422H0z" fill="#15120f" opacity=".62"/>
<g filter="url(#shadow)">
<rect x="360" y="285" width="1200" height="640" rx="54" fill="#fffaf3"/>
<path d="M300 340h1320l-92-155H392z" fill="#15120f"/>
<rect x="430" y="415" width="485" height="330" rx="34" fill="#241711"/>
<rect x="1005" y="415" width="425" height="330" rx="34" fill="#241711"/>
<rect x="485" y="470" width="375" height="220" rx="26" fill="url(#warm)" filter="url(#glow)" opacity=".86"/>
<rect x="1058" y="470" width="318" height="220" rx="26" fill="url(#warm)" filter="url(#glow)" opacity=".86"/>
<rect x="690" y="760" width="540" height="164" rx="32" fill="#8a5b38"/>
<rect x="765" y="610" width="390" height="110" rx="55" fill="#7e9b60"/>
<text x="960" y="686" font-family="Arial, sans-serif" font-size="74" font-weight="900" text-anchor="middle" fill="#fffaf3">BLK.8</text>
<text x="960" y="802" font-family="Arial, sans-serif" font-size="54" font-weight="800" text-anchor="middle" fill="#fffaf3">CAFÉ</text>
</g>
<rect x="250" y="915" width="1420" height="18" rx="9" fill="#f1d6b2" opacity=".36"/>
<circle cx="520" cy="905" r="46" fill="#7e9b60" opacity=".86"/>
<circle cx="1420" cy="895" r="54" fill="#d8b894" opacity=".86"/>
</svg>